<svg xmlns="http://www.w3.org/2000/svg" width="476.794" height="538.583" viewBox="0 0 476.794 538.583"><path fill="#2062AF" d="M432.09 484.239l-193.695 52.152-193.698-52.152L0 0h476.794L432.09 484.239z"/><path fill="#3C9CD7" d="M238.394 39.223v455.569l.439.122 156.75-42.209 36.181-413.482h-193.37z"/><path fill="#FFF" d="M238.22 160.301l-138.633 57.74 4.597 57.166 134.038-57.312 142.579-60.96 5.913-58.476-148.494 61.842z"/><linearGradient id="a" gradientUnits="userSpaceOnUse" x1="-765.027" y1="1131.134" x2="-765.027" y2="1246.038" gradientTransform="matrix(1 0 0 -1 933.93 1406.34)"><stop offset=".387" stop-color="#d1d3d4" stop-opacity="0"/><stop offset="1" stop-color="#d1d3d4"/></linearGradient><path fill="url(#a)" d="M99.585 218.041l4.598 57.166 134.037-57.312v-57.592L99.585 218.041z"/><linearGradient id="b" gradientUnits="userSpaceOnUse" x1="-621.462" y1="1188.446" x2="-621.462" y2="1307.881" gradientTransform="matrix(1 0 0 -1 933.93 1406.34)"><stop offset=".387" stop-color="#d1d3d4" stop-opacity="0"/><stop offset="1" stop-color="#d1d3d4"/></linearGradient><path fill="url(#b)" d="M386.714 98.459L238.22 160.303v57.592l142.58-60.96 5.914-58.476z"/><linearGradient id="c" gradientUnits="userSpaceOnUse" x1="-834.131" y1="1079.889" x2="-558.166" y2="1079.889" gradientTransform="matrix(1 0 0 -1 933.93 1406.34)"><stop offset="0" stop-color="#e8e7e5"/><stop offset="1" stop-color="#fff"/></linearGradient><path fill="url(#c)" d="M99.798 218.041l4.599 57.166 205.662.655-4.601 76.215-67.675 19.055-65.055-16.43-3.942-47.307h-60.448l7.886 91.333 122.217 36.135 121.553-35.481 15.77-181.342H99.798v.001z"/><path d="M238.22 218.041H99.587l4.597 57.166 134.038.428v-57.594h-.002zm0 152.907l-.656.184-65.048-16.425-3.94-47.31h-60.447l7.884 91.333 122.208 36.136v-63.918h-.001z" opacity=".05"/><linearGradient id="d" gradientUnits="userSpaceOnUse" x1="-846.828" y1="1278.643" x2="-547.216" y2="1278.643" gradientTransform="matrix(1 0 0 -1 933.93 1406.34)"><stop offset="0" stop-color="#e8e7e5"/><stop offset="1" stop-color="#fff"/></linearGradient><path fill="url(#d)" d="M87.102 98.459h299.612l-5.913 58.478H94.328l-7.226-58.478z"/><path opacity=".05" d="M238.22 98.459H87.102l7.227 58.478h143.893V98.459h-.002z"/></svg>