<svg xmlns="http://www.w3.org/2000/svg" width="317.953" height="361" viewBox="0 0 317.953 361"><path fill="#E44D26" d="M317.953 0l-28.925 324.041-130.023 36.047-129.664-35.996L.445 0h317.508z"/><path fill="#F16529" d="M159.199 332.535l105.063-29.127 24.72-276.91H159.199v306.037z"/><path fill="#EBEBEB" d="M102.968 105.997h56.231v-39.75H59.528l.952 10.664 9.769 109.535h88.95v-39.747h-52.598l-3.633-40.702zm8.959 100.326H72.025l5.568 62.411 81.422 22.604.183-.051v-41.356l-.174.046-44.268-11.952-2.829-31.702z"/><path fill="#FFF" d="M159.062 186.447h48.945l-4.613 51.552-44.332 11.967v41.354l81.487-22.585.597-6.715 9.341-104.646.97-10.672h-92.395v39.745zm0-80.547v.097h96.013l.798-8.935 1.811-20.15.952-10.664h-99.573V105.9h-.001z"/></svg>